<?xml version="1.0" encoding="UTF-8" standalone="no"?>
<!DOCTYPE svg PUBLIC "-//W3C//DTD SVG 1.1//EN" "http://www.w3.org/Graphics/SVG/1.1/DTD/svg11.dtd">
<svg version="1.1" xmlns="http://www.w3.org/2000/svg" xmlns:xlink="http://www.w3.org/1999/xlink" preserveAspectRatio="xMidYMid meet" viewBox="141.17823484379397 84.39726806699476 301.8217651562059 292.93638379359794" width="297.82" height="288.94"><defs><path d="M382.46 279.16C347.64 342.01 269.75 365.54 208.63 331.68C147.5 297.81 126.14 219.3 160.96 156.45C195.77 93.61 273.66 70.08 334.79 103.94C395.91 137.8 417.27 216.31 382.46 279.16Z" id="bI1whl5ow"></path><path d="" id="afipZvvo5"></path><path d="M240.75 139.5C231.53 156.14 208.97 161.3 190.39 151.01C171.81 140.72 164.22 118.85 173.44 102.21C182.66 85.56 205.23 80.4 223.8 90.7C242.38 100.99 249.98 122.85 240.75 139.5Z" id="bnH0FOfYR"></path><path d="M156.3 162.66C151.84 170.73 149.05 175.77 147.93 177.79C147.57 178.45 147.32 179.16 147.2 179.89C146.53 183.79 144.85 193.53 142.18 209.11L142.8 233.25L159 247.7L181.97 257.63L208.62 263.41L241.73 260.44L265.71 252.2L279.09 241.23" id="a2TF0iAUS"></path><path d="M370.12 165.86L418.07 152.78L429.02 192.94L381.07 206.01L370.12 165.86Z" id="a5SvQW5m1w"></path><path d="M223.63 130.01C218.48 139.31 206.89 142.75 197.76 137.7C188.64 132.64 185.41 120.99 190.57 111.7C195.72 102.4 207.3 98.95 216.43 104.01C225.55 109.06 228.78 120.71 223.63 130.01Z" id="b6vPRaLoNF"></path><path d="M323.46 318.04L334.61 364.65L294.13 374.33L282.98 327.72L323.46 318.04Z" id="b1jO5pBe13"></path><path d="M371.29 206.54L423.08 209.02L421.09 250.59L369.3 248.11L371.29 206.54Z" id="a12RJVQuk9"></path><path d="M354.27 286.85L383.69 329.54L349.41 353.15L320 310.46L354.27 286.85Z" id="c3U0UhHDeD"></path><path d="M362.55 232.36L440 282.11L412.11 325.53L334.66 275.78L362.55 232.36Z" id="aROwBrZii"></path><path d="M306.64 181.52C301.69 190.46 289.74 193.34 279.99 187.93C270.23 182.53 266.33 170.88 271.29 161.93C276.24 152.98 288.19 150.11 297.95 155.51C307.7 160.92 311.6 172.57 306.64 181.52Z" id="aJNIFnUPg"></path><path d="M323.75 186.73C314.53 203.37 291.97 208.53 273.39 198.24C254.81 187.95 247.22 166.08 256.44 149.44C265.66 132.79 288.23 127.63 306.8 137.93C325.38 148.22 332.98 170.09 323.75 186.73Z" id="b1L1xAdleT"></path><path d="M304.65 178.13C299.5 187.43 287.91 190.87 278.79 185.82C269.66 180.76 266.44 169.11 271.59 159.81C276.74 150.52 288.33 147.07 297.45 152.13C306.58 157.18 309.8 168.83 304.65 178.13Z" id="j9bnXhTqb"></path></defs><g><g><use xlink:href="#bI1whl5ow" opacity="1" fill="#0069ff" fill-opacity="1"></use></g><g><g><use xlink:href="#afipZvvo5" opacity="1" fill-opacity="0" stroke="#000000" stroke-width="1" stroke-opacity="1"></use></g></g><g><use xlink:href="#bnH0FOfYR" opacity="1" fill="#ffffff" fill-opacity="1"></use></g><g><use xlink:href="#a2TF0iAUS" opacity="1" fill="#ffffff" fill-opacity="1"></use><g><use xlink:href="#a2TF0iAUS" opacity="1" fill-opacity="0" stroke="#000000" stroke-width="0" stroke-opacity="1"></use></g></g><g><use xlink:href="#a5SvQW5m1w" opacity="1" fill="#036bff" fill-opacity="1"></use></g><g><use xlink:href="#b6vPRaLoNF" opacity="1" fill="#0079fb" fill-opacity="1"></use></g><g><use xlink:href="#b1jO5pBe13" opacity="1" fill="#0069ff" fill-opacity="1"></use></g><g><use xlink:href="#a12RJVQuk9" opacity="1" fill="#0069ff" fill-opacity="1"></use></g><g><use xlink:href="#c3U0UhHDeD" opacity="1" fill="#0069ff" fill-opacity="1"></use></g><g><use xlink:href="#aROwBrZii" opacity="1" fill="#0069ff" fill-opacity="1"></use></g><g><use xlink:href="#aJNIFnUPg" opacity="1" fill="#0079fb" fill-opacity="1"></use></g><g><use xlink:href="#b1L1xAdleT" opacity="1" fill="#ffffff" fill-opacity="1"></use></g><g><use xlink:href="#j9bnXhTqb" opacity="1" fill="#0079fb" fill-opacity="1"></use></g></g></svg>